<svg width="24" height="24" viewBox="0 0 24 24" fill="none" xmlns="http://www.w3.org/2000/svg">
<path d="M12 0.09375C5.37 0.09375 0 5.46375 0 12.0938C0 17.4037 3.435 21.8888 8.205 23.4788C8.805 23.5838 9.03 23.2238 9.03 22.9088C9.03 22.6238 9.015 21.6788 9.015 20.6738C6 21.2288 5.22 19.9387 4.98 19.2637C4.845 18.9187 4.26 17.8537 3.75 17.5687C3.33 17.3437 2.73 16.7887 3.735 16.7737C4.68 16.7587 5.355 17.6437 5.58 18.0037C6.66 19.8187 8.385 19.3088 9.075 18.9938C9.18 18.2138 9.495 17.6887 9.84 17.3887C7.17 17.0887 4.38 16.0537 4.38 11.4637C4.38 10.1587 4.845 9.07875 5.61 8.23875C5.49 7.93875 5.07 6.70875 5.73 5.05875C5.73 5.05875 6.735 4.74375 9.03 6.28875C9.99 6.01875 11.01 5.88375 12.03 5.88375C13.05 5.88375 14.07 6.01875 15.03 6.28875C17.325 4.72875 18.33 5.05875 18.33 5.05875C18.99 6.70875 18.57 7.93875 18.45 8.23875C19.215 9.07875 19.68 10.1437 19.68 11.4637C19.68 16.0687 16.875 17.0887 14.205 17.3887C14.64 17.7637 15.015 18.4838 15.015 19.6088C15.015 21.2138 15 22.5038 15 22.9088C15 23.2238 15.225 23.5988 15.825 23.4788C18.2073 22.6747 20.2775 21.1438 21.744 19.1014C23.2106 17.059 23.9996 14.6081 24 12.0938C24 5.46375 18.63 0.09375 12 0.09375Z" fill="black"/>
</svg>
